<svg width="120" height="38" viewBox="0 0 120 38" fill="none" xmlns="http://www.w3.org/2000/svg">
<path d="M43.9724 6.15039H45.9764C46.4465 6.15039 46.8341 6.53252 46.8341 6.99595V28.1106C46.8341 28.4033 47.0732 28.6391 47.3701 28.6391H60.0785C60.5486 28.6391 60.9362 29.0212 60.9362 29.4847V30.9888C60.9362 31.4522 60.5486 31.8343 60.0785 31.8343H43.9724C43.5023 31.8343 43.1147 31.4522 43.1147 30.9888V6.99595C43.1147 6.53252 43.5023 6.15039 43.9724 6.15039Z" fill="white"/>
<path d="M81.5701 25.4113H68.4411C68.2266 25.4113 68.0287 25.5414 67.938 25.7365L65.4392 31.3303C65.299 31.6392 64.9939 31.8343 64.6558 31.8343H62.7095C62.0827 31.8343 61.6704 31.2002 61.926 30.6392L72.9438 6.64635C73.084 6.34552 73.3892 6.15039 73.7273 6.15039H76.3086C76.6467 6.15039 76.9518 6.34552 77.092 6.64635L88.1428 30.6392C88.3984 31.2002 87.9861 31.8343 87.3593 31.8343H85.3389C85.0007 31.8343 84.6874 31.6392 84.5554 31.3303L82.0566 25.7365C81.9659 25.5414 81.7762 25.4113 81.5536 25.4113H81.5701ZM80.366 21.8909L75.3932 10.7603C75.2447 10.427 74.7664 10.427 74.618 10.7603L69.6451 21.8909C69.5214 22.1673 69.7276 22.4762 70.0327 22.4762H79.9702C80.2753 22.4762 80.4815 22.1673 80.3578 21.8909H80.366Z" fill="white"/>
<path d="M92.5383 6.15039H94.5423C95.0124 6.15039 95.4 6.53252 95.4 6.99595V30.9888C95.4 31.4522 95.0124 31.8343 94.5423 31.8343H92.5383C92.0683 31.8343 91.6807 31.4522 91.6807 30.9888V6.99595C91.6807 6.53252 92.0683 6.15039 92.5383 6.15039Z" fill="white"/>
<path d="M104.249 31.2326C102.715 30.7285 101.461 30.1025 100.48 29.3463C100.166 29.1024 100.059 28.6715 100.232 28.3138L100.859 27.0129C101.082 26.5413 101.692 26.3706 102.121 26.6714C102.97 27.2731 103.977 27.7772 105.139 28.1918C106.69 28.7447 108.281 29.0211 109.923 29.0211C112.083 29.0211 113.691 28.6634 114.763 27.9398C115.827 27.2162 116.363 26.2568 116.363 25.0616C116.363 24.1835 116.075 23.4681 115.489 22.9152C114.904 22.3623 114.186 21.9395 113.328 21.6468C112.471 21.3541 111.267 21.0208 109.7 20.6549C107.737 20.1915 106.162 19.7281 104.958 19.2646C103.754 18.8012 102.723 18.0857 101.865 17.1182C101.008 16.1507 100.579 14.8498 100.579 13.2075C100.579 11.8416 100.942 10.6058 101.676 9.50001C102.41 8.40241 103.515 7.5162 105.007 6.85763C106.492 6.19907 108.347 5.86572 110.549 5.86572C112.091 5.86572 113.601 6.06085 115.093 6.45111C116.297 6.7682 117.361 7.19911 118.293 7.73572C118.664 7.94711 118.813 8.40241 118.656 8.79267L118.079 10.1748C117.881 10.6383 117.328 10.8334 116.875 10.5895C116.025 10.1342 115.135 9.77645 114.203 9.50815C112.966 9.15041 111.745 8.97967 110.558 8.97967C108.446 8.97967 106.871 9.3618 105.816 10.1179C104.76 10.8741 104.232 11.8578 104.232 13.053C104.232 13.9311 104.529 14.6466 105.123 15.1994C105.717 15.7523 106.459 16.1751 107.333 16.484C108.215 16.793 109.411 17.1101 110.92 17.4597C112.883 17.9231 114.458 18.3865 115.646 18.85C116.833 19.3134 117.856 20.0208 118.714 20.9801C119.571 21.9314 120 23.216 120 24.834C120 26.1755 119.629 27.4113 118.887 28.517C118.145 29.6309 117.015 30.509 115.497 31.1594C113.98 31.8099 112.124 32.1351 109.914 32.1351C107.952 32.1351 106.063 31.8342 104.24 31.2326H104.249Z" fill="white"/>
<path d="M36.1953 17.5894C35.4118 17.5894 34.7686 18.2154 34.7686 18.9959C34.7686 27.6711 27.6103 34.7364 18.8027 34.7364C12.1145 34.7364 6.08601 30.5736 3.80163 24.3864C3.66968 24.0368 3.41403 23.7522 3.06766 23.5977C2.72129 23.4432 2.33369 23.427 1.97908 23.5489C1.24511 23.8172 0.857503 24.6222 1.12965 25.3458C3.82637 32.6469 10.9269 37.5495 18.8109 37.5495C29.1855 37.5495 37.622 29.2321 37.622 19.004C37.622 18.2317 36.987 17.5975 36.1953 17.5975V17.5894Z" fill="white"/>
<path d="M36.1955 17.5897H27.2889L24.0726 10.5081C23.8334 9.98776 23.3056 9.66254 22.7201 9.67881C22.1346 9.7032 21.6315 10.0609 21.4336 10.5975L17.7472 20.5735L14.9351 13.6546C14.7206 13.1342 14.2176 12.7846 13.6485 12.7765H13.6156C13.0548 12.7765 12.5517 13.1017 12.3208 13.5977L10.49 17.5897H1.42671C0.643255 17.5897 0 18.2157 0 18.9963C0 19.7768 0.635008 20.4028 1.42671 20.4028H11.4054C11.9662 20.4028 12.4692 20.0776 12.7002 19.5816L13.5331 17.7686L16.4855 25.0371C16.6999 25.5737 17.2194 25.9152 17.805 25.9152H17.8297C18.4152 25.9071 18.943 25.5331 19.141 24.9965L22.9015 14.8254L25.0622 19.5816C25.2931 20.0857 25.8044 20.4109 26.3652 20.4109H36.1955C36.9789 20.4109 37.6222 19.7849 37.6222 19.0044C37.6222 18.2239 36.9872 17.5978 36.1955 17.5978V17.5897Z" fill="white"/>
<path d="M36.4923 12.6544C33.7956 5.35332 26.6868 0.450684 18.8111 0.450684C8.43653 0.450684 0 8.76809 0 18.9961C0 19.7685 0.635008 20.4027 1.42671 20.4027C2.2184 20.4027 2.85341 19.7767 2.85341 18.9961C2.84517 10.321 10.0117 3.25567 18.8111 3.25567C25.4993 3.25567 31.5277 7.41844 33.8121 13.6057C33.9441 13.9553 34.208 14.2399 34.5461 14.3943C34.8925 14.5488 35.2801 14.5651 35.6347 14.4431C35.9893 14.313 36.2779 14.061 36.4346 13.7195C36.5913 13.378 36.6078 12.9959 36.4841 12.6463L36.4923 12.6544Z" fill="white"/>
</svg>
